<svg xmlns="http://www.w3.org/2000/svg" fill="none" viewBox="0 0 48 48" height="48" width="48"><path fill="#edbd0e" d="M28.5 10.5C23.3338 10.5 19.5338 10.6722 16.9407 10.8574C13.6393 11.0932 11.0932 13.6393 10.8574 16.9407C10.6722 19.5338 10.5 23.3338 10.5 28.5C10.5 33.6662 10.6722 37.4662 10.8574 40.0593C11.0932 43.3607 13.6393 45.9068 16.9407 46.1426C19.5338 46.3278 23.3338 46.5 28.5 46.5C33.6662 46.5 37.4662 46.3278 40.0593 46.1426C43.3607 45.9068 45.9068 43.3607 46.1426 40.0593C46.3278 37.4662 46.5 33.6662 46.5 28.5C46.5 23.3338 46.3278 19.5338 46.1426 16.9407C45.9068 13.6393 43.3607 11.0932 40.0593 10.8574C37.4662 10.6722 33.6662 10.5 28.5 10.5Z"></path><path fill="#000000" d="M7.94068 1.8574C10.5338 1.67219 14.3338 1.5 19.5 1.5C24.6662 1.5 28.4662 1.67219 31.0593 1.8574C34.274 2.087 36.7725 4.5071 37.1193 7.68205C34.8074 7.57579 31.9495 7.5 28.5 7.5C23.2673 7.5 19.3959 7.6744 16.727 7.86502C11.9372 8.20712 8.20712 11.9372 7.86502 16.727C7.6744 19.3959 7.5 23.2673 7.5 28.5C7.5 31.9495 7.57579 34.8074 7.68205 37.1193C4.5071 36.7725 2.087 34.274 1.8574 31.0593C1.67219 28.4662 1.5 24.6662 1.5 19.5C1.5 14.3338 1.67219 10.5338 1.8574 7.94069C2.09319 4.6393 4.6393 2.09319 7.94068 1.8574Z"></path><path fill="#000000" d="M43.4169 34.3897C42.0423 33.1426 40.971 32.2257 40.1545 31.5578C38.6611 30.3364 36.6567 30.143 35.018 31.2359C33.9543 31.9454 32.5256 33.0006 30.6893 34.5575C27.8978 31.9001 25.9495 30.2033 24.6485 29.1392C23.1551 27.9177 21.1507 27.7243 19.512 28.8173C18.1537 29.7232 16.1994 31.1935 13.5605 33.5534C13.6258 36.1652 13.7359 38.249 13.8499 39.8456C13.9794 41.6586 15.3415 43.0207 17.1546 43.1502C19.6719 43.33 23.4005 43.5 28.5002 43.5C33.5999 43.5 37.3284 43.33 39.8457 43.1502C41.6588 43.0207 43.0209 41.6586 43.1504 39.8456C43.252 38.4232 43.3504 36.6142 43.4169 34.3897Z"></path><path fill="#000000" d="M32.5 20.5C32.5 18.2909 34.2909 16.5 36.5 16.5C38.7091 16.5 40.5 18.2909 40.5 20.5C40.5 22.7091 38.7091 24.5 36.5 24.5C34.2909 24.5 32.5 22.7091 32.5 20.5Z"></path><path fill="#000000" d="M46.3158 37.0912C43.4594 34.3674 41.4737 32.637 40.1543 31.5578C38.6609 30.3364 36.6565 30.143 35.0179 31.2359C33.9542 31.9454 32.5254 33.0006 30.6892 34.5575C27.8976 31.9001 25.9493 30.2033 24.6483 29.1392C23.1549 27.9177 21.1506 27.7243 19.5119 28.8173C17.695 30.0291 14.8109 32.2512 10.6475 36.2628C10.708 37.7373 10.7815 38.9992 10.8572 40.0593C11.093 43.3607 13.6391 45.9068 16.9405 46.1426C19.5336 46.3278 23.3336 46.5 28.4998 46.5C33.666 46.5 37.466 46.3278 40.0591 46.1426C43.3605 45.9068 45.9066 43.3607 46.1424 40.0593C46.2035 39.2034 46.2633 38.2159 46.3158 37.0912Z"></path></svg>