<svg xmlns="http://www.w3.org/2000/svg" fill="none" viewBox="0 0 48 48" height="48" width="48"><path fill="#edbd0e" fill-rule="evenodd" d="M24 1.5C11.5736 1.5 1.5 11.5736 1.5 24C1.5 36.4264 11.5736 46.5 24 46.5C36.4264 46.5 46.5 36.4264 46.5 24C46.5 11.5736 36.4264 1.5 24 1.5Z" clip-rule="evenodd"></path><path fill="#000000" fill-rule="evenodd" d="M28.5857 17.8413L25.7753 12.4229C25.029 10.984 22.9708 10.984 22.2245 12.4229L19.4141 17.8413L13.4557 19.0146C11.9326 19.3145 11.317 21.1598 12.3549 22.3141L16.5799 27.013L15.8039 33.3012C15.6085 34.8845 17.2546 36.0481 18.682 35.3356L23.9999 32.6813L29.3178 35.3356C30.7452 36.0481 32.3913 34.8845 32.1959 33.3012L31.4199 27.013L35.6449 22.3141C36.6829 21.1598 36.0672 19.3145 34.5441 19.0146L28.5857 17.8413Z" clip-rule="evenodd"></path></svg>