<svg xmlns="http://www.w3.org/2000/svg" fill="none" viewBox="0 0 48 48" height="48" width="48"><path fill="#edbd0e" d="M33.5296 5.12439C32.6078 6.55231 31.7801 8.0017 31.1358 9.23115C30.4673 10.5067 30.3752 12.0537 31.0603 13.4092C31.1991 13.6839 31.3637 13.9382 31.5503 14.1705C31.3417 14.585 31.1446 14.9889 30.9609 15.3768C30.3706 16.6236 30.3143 18.1118 30.985 19.4172C31.0909 19.6233 31.2115 19.8179 31.3451 20.0002H6.00005C5.82909 20.0002 5.65811 20.0069 5.48755 20.0202C7.3411 16.6997 9.86325 12.7772 12.3101 9.97006C13.758 8.30903 16.242 8.30904 17.6899 9.97006C18.0253 10.3548 18.3621 10.7605 18.6983 11.1828C20.9827 7.98773 23.4869 4.8944 25.8865 2.58917C27.3595 1.17405 29.6405 1.17405 31.1136 2.58917C31.9113 3.35555 32.7206 4.20903 33.5296 5.12439Z"></path><path fill="#edbd0e" fill-rule="evenodd" d="M5.99995 22.5C3.58226 22.5 1.34308 24.515 1.72637 27.2029C3.28213 38.1127 12.6603 46.5 24 46.5C35.3396 46.5 44.7178 38.1127 46.2735 27.2029C46.6568 24.515 44.4176 22.5 42 22.5H5.99995Z" clip-rule="evenodd"></path><path fill="#000000" fill-rule="evenodd" d="M24.5699 22.5H42C44.4176 22.5 46.6568 24.515 46.2735 27.2029C45.0681 35.6561 39.1664 42.595 31.2947 45.2912C29.4604 41.8007 31.2019 38.9207 32.6413 36.5402C33.5772 34.9924 34.3854 33.6559 34.0001 32.5C33.4694 31.3208 31.9692 30.923 30.309 30.4828C27.3396 29.6955 23.8587 28.7726 24.5001 23C24.5187 22.8331 24.542 22.6663 24.5699 22.5ZM14.469 22.5C16.2126 24.6139 17.1078 27.0078 16.0001 29.5C15.136 31.4444 13.4504 32.3192 11.734 33.2101C9.65178 34.2909 7.52411 35.3952 6.76197 38.4609C4.12677 35.3227 2.33263 31.4543 1.72637 27.2029C1.34308 24.515 3.58226 22.5 5.99995 22.5H14.469Z" clip-rule="evenodd"></path><path fill="#000000" d="M38.9129 2.21553C39.4516 1.6762 40.3136 1.6762 40.8522 2.21553C42.8315 4.19745 45.0165 7.72271 46.4151 10.3914C46.7453 11.0217 46.7603 11.7142 46.4737 12.2814C46.1905 12.8417 45.6375 13.2295 44.9343 13.309C45.5363 14.3985 46.0859 15.4773 46.5448 16.4464C46.8362 17.0619 46.8371 17.7284 46.5565 18.2745C46.2731 18.8262 45.7262 19.2069 45.0296 19.2821C44.1807 19.3737 43.0016 19.4546 41.3826 19.4861V24C41.3826 24.8284 40.711 25.5 39.8826 25.5C39.0541 25.5 38.3826 24.8284 38.3826 24L38.3826 19.4861C36.7636 19.4546 35.5845 19.3737 34.7355 19.2821C34.039 19.2069 33.4921 18.8262 33.2087 18.2745C32.9281 17.7284 32.929 17.0619 33.2204 16.4464C33.6793 15.4773 34.2289 14.3985 34.8309 13.309C34.1276 13.2295 33.5747 12.8417 33.2915 12.2814C33.0049 11.7142 33.0198 11.0217 33.3501 10.3914C34.7487 7.7227 36.9336 4.19745 38.9129 2.21553Z"></path></svg>