<svg xmlns="http://www.w3.org/2000/svg" fill="none" viewBox="0 0 48 48" height="48" width="48"><path fill="#000000" d="M14 46.5C14.9049 46.5 15.749 46.4099 16.3255 46.3295C17.5018 46.1655 18.3418 45.1904 18.4026 44.0557C18.4454 43.2553 18.5 41.8691 18.5 40C18.5 37.9922 18.437 36.5416 18.3932 35.7757C18.3396 34.8376 17.6977 33.8516 16.5311 33.6613C16.0011 33.5748 15.1993 33.5 14 33.5C12.8007 33.5 11.9989 33.5748 11.4689 33.6613C10.3023 33.8516 9.66041 34.8376 9.60677 35.7757C9.56299 36.5416 9.5 37.9922 9.5 40C9.5 41.8691 9.55459 43.2553 9.59745 44.0557C9.65821 45.1904 10.4982 46.1655 11.6745 46.3295C12.251 46.4099 13.0951 46.5 14 46.5Z"></path><path fill="#000000" d="M34 46.5C33.0951 46.5 32.251 46.4099 31.6745 46.3295C30.4982 46.1655 29.6582 45.1904 29.5974 44.0557C29.5546 43.2553 29.5 41.8691 29.5 40C29.5 37.9922 29.563 36.5416 29.6068 35.7757C29.6604 34.8376 30.3023 33.8516 31.4689 33.6613C31.9989 33.5748 32.8007 33.5 34 33.5C35.1993 33.5 36.0011 33.5748 36.5311 33.6613C37.6977 33.8516 38.3396 34.8376 38.3932 35.7757C38.437 36.5416 38.5 37.9922 38.5 40C38.5 41.8691 38.4454 43.2553 38.4026 44.0557C38.3418 45.1904 37.5018 46.1655 36.3255 46.3295C35.749 46.4099 34.9049 46.5 34 46.5Z"></path><path fill="#edbd0e" fill-rule="evenodd" d="M11.0026 1.91862C13.8316 1.70616 18.0974 1.5 24 1.5C29.9026 1.5 34.1684 1.70616 36.9974 1.91862C40.2937 2.16617 42.8338 4.70628 43.0814 8.00262C43.1929 9.48796 43.3027 11.3693 43.3819 13.6756C45.0446 14.1588 46.3423 15.5989 46.4333 17.4948C46.472 18.302 46.5 19.2886 46.5 20.4546C46.5 21.4335 46.4803 22.2263 46.4506 22.8656C46.364 24.7313 45.0614 26.0182 43.466 26.3896C43.415 30.2897 43.3148 33.2194 43.2223 35.2356C43.0976 37.9545 40.9545 40.0976 38.2356 40.2223C35.3786 40.3534 30.6875 40.5 24 40.5C17.3125 40.5 12.6214 40.3534 9.76439 40.2223C7.04553 40.0976 4.90236 37.9545 4.77766 35.2356C4.68519 33.2194 4.58495 30.2897 4.53396 26.3896C2.93859 26.0182 1.63599 24.7313 1.54939 22.8656C1.51972 22.2263 1.5 21.4335 1.5 20.4546C1.5 19.2886 1.52797 18.302 1.5667 17.4948C1.65766 15.5989 2.95539 14.1588 4.61811 13.6756C4.69726 11.3693 4.80707 9.48796 4.91862 8.00262C5.16618 4.70628 7.70628 2.16618 11.0026 1.91862Z" clip-rule="evenodd"></path><path fill="#000000" fill-rule="evenodd" d="M12.8863 6.94094C14.7283 6.75711 18.3197 6.5 24 6.5C29.6803 6.5 33.2717 6.75711 35.1137 6.94093C36.669 7.09616 37.8879 8.3015 38.0507 9.8622C38.2394 11.6719 38.5 15.1663 38.5 20.6698C38.5 22.7186 38.48 24.5021 38.4495 26.0296C38.4332 26.8463 37.7666 27.4997 36.9498 27.4997H11.0502C10.2334 27.4997 9.56676 26.8463 9.55048 26.0296C9.52003 24.5021 9.5 22.7187 9.5 20.6698C9.5 15.1663 9.76055 11.6719 9.94933 9.8622C10.1121 8.30151 11.331 7.09616 12.8863 6.94094Z" clip-rule="evenodd"></path><path fill="#000000" d="M14 32.5C13.1716 32.5 12.5 33.1716 12.5 34C12.5 34.8284 13.1716 35.5 14 35.5H17C17.8284 35.5 18.5 34.8284 18.5 34C18.5 33.1716 17.8284 32.5 17 32.5H14Z"></path><path fill="#000000" d="M35.5 34C35.5 33.1716 34.8284 32.5 34 32.5H31C30.1716 32.5 29.5 33.1716 29.5 34C29.5 34.8284 30.1716 35.5 31 35.5H34C34.8284 35.5 35.5 34.8284 35.5 34Z"></path></svg>